<?xml version="1.0" encoding="UTF-8" standalone="no"?>
<svg
   xmlns:dc="http://purl.org/dc/elements/1.1/"
   xmlns:cc="http://creativecommons.org/ns#"
   xmlns:rdf="http://www.w3.org/1999/02/22-rdf-syntax-ns#"
   xmlns:svg="http://www.w3.org/2000/svg"
   xmlns="http://www.w3.org/2000/svg"
   xmlns:sodipodi="http://sodipodi.sourceforge.net/DTD/sodipodi-0.dtd"
   xmlns:inkscape="http://www.inkscape.org/namespaces/inkscape"
   version="1.0"
   width="100mm"
   height="30mm"
   viewBox="0 0 283.46457 85.039368"
   preserveAspectRatio="xMidYMid meet"
   id="svg998"
   sodipodi:docname="goodghosting-text.svg"
   inkscape:version="1.0beta2 (2b71d25, 2019-12-03)">
  <defs
     id="defs1002" />
  <sodipodi:namedview
     pagecolor="#ffffff"
     bordercolor="#666666"
     inkscape:document-rotation="0"
     borderopacity="1"
     objecttolerance="10"
     gridtolerance="10"
     guidetolerance="10"
     inkscape:pageopacity="0"
     inkscape:pageshadow="2"
     inkscape:window-width="1920"
     inkscape:window-height="1006"
     id="namedview1000"
     showgrid="false"
     units="mm"
     inkscape:zoom="1.7201365"
     inkscape:cx="299.67264"
     inkscape:cy="161.03373"
     inkscape:window-x="0"
     inkscape:window-y="23"
     inkscape:window-maximized="0"
     inkscape:current-layer="svg998" />
  <metadata
     id="metadata984">
Created by potrace 1.16, written by Peter Selinger 2001-2019
<rdf:RDF>
  <cc:Work
     rdf:about="">
    <dc:format>image/svg+xml</dc:format>
    <dc:type
       rdf:resource="http://purl.org/dc/dcmitype/StillImage" />
    <dc:title></dc:title>
  </cc:Work>
</rdf:RDF>
</metadata>
  <g
     inkscape:export-ydpi="96"
     inkscape:export-xdpi="96"
     transform="matrix(0.03133985,0,0,-0.03189351,-5.6049766,88.3998)"
     fill="#2B2B52"
     stroke="none"
     id="g996">
    <path
       d="m 1160,2485 c -338,-47 -544,-224 -491,-421 13,-47 68,-134 84,-134 7,0 38,26 70,57 l 59,56 -31,24 c -53,42 -57,59 -19,94 109,101 340,157 602,146 199,-8 335,-44 444,-115 73,-48 79,-63 43,-105 l -30,-33 64,-57 64,-57 25,42 c 36,63 46,94 46,146 0,135 -129,258 -335,322 -153,47 -402,62 -595,35 z"
       id="path986"
       inkscape:connector-curvature="0" />
    <path
       d="m 1221,2164 c -194,-42 -399,-202 -491,-384 -57,-112 -75,-193 -75,-330 0,-114 3,-133 31,-211 35,-97 115,-225 199,-317 172,-188 590,-485 878,-623 107,-51 160,-60 177,-30 17,32 6,52 -65,126 -52,53 -68,78 -81,123 -38,130 5,268 132,420 81,97 140,201 176,307 33,99 33,284 0,400 -73,254 -296,467 -547,520 -87,18 -249,18 -334,-1 z m 333,-70 c 280,-72 485,-322 503,-614 10,-169 -54,-341 -186,-497 -118,-140 -168,-267 -159,-408 5,-70 37,-153 77,-199 36,-41 -202,94 -406,231 -318,213 -527,417 -609,598 -159,347 54,775 441,886 79,23 255,25 339,3 z"
       id="path988"
       inkscape:connector-curvature="0" />
    <path
       d="m 1649,1640 c -49,-26 -101,-87 -97,-113 5,-38 46,-34 79,6 32,39 87,62 123,53 13,-3 41,-24 62,-46 43,-44 79,-52 89,-20 8,27 -36,84 -90,115 -51,30 -115,32 -166,5 z"
       id="path990"
       inkscape:connector-curvature="0" />
    <path
       d="m 979,1622 c -52,-33 -82,-74 -77,-105 5,-38 36,-32 88,17 67,63 102,63 169,1 52,-49 75,-55 90,-26 8,15 4,27 -20,57 -70,88 -165,109 -250,56 z"
       id="path992"
       inkscape:connector-curvature="0" />
    <path
       d="m 1227,1339 c -27,-16 -20,-45 19,-85 44,-43 106,-73 152,-74 45,0 105,33 137,74 53,70 1,105 -64,43 -20,-19 -46,-38 -58,-41 -28,-9 -86,16 -115,49 -31,36 -50,45 -71,34 z"
       id="path994"
       inkscape:connector-curvature="0" />
  </g>
  <text
     xml:space="preserve"
     id="text1004"
     style="font-size:28px;line-height:1.25;font-family:lato;-inkscape-font-specification:'lato Normal';white-space:pre;shape-inside:url(#rect1006);" />
  <text
     inkscape:export-ydpi="96"
     inkscape:export-xdpi="96"
     transform="scale(0.99128208,1.0087946)"
     id="text851"
     y="51.477177"
     x="76.378387"
     style="font-size:25.0293px;line-height:1.25;font-family:Montserrat;-inkscape-font-specification:Montserrat;stroke-width:0.469299"
     xml:space="preserve"><tspan
       style="font-style:normal;font-variant:normal;font-weight:900;font-stretch:normal;font-family:Montserrat;-inkscape-font-specification:'Montserrat Heavy';stroke-width:0.469299"
       y="51.477177"
       x="76.378387"
       id="tspan849"
       sodipodi:role="line">GoodGhosting</tspan></text>
</svg>
