<svg height="512pt" viewBox="-60 0 512 512.001" width="512pt" xmlns="http://www.w3.org/2000/svg"><path d="m130.953125 333.800781-107.183594-107.183593c-8.628906-8.628907-8.628906-22.621094 0-31.25l188.898438-188.894532c8.628906-8.628906 22.617187-8.628906 31.246093 0l107.183594 107.183594c8.628906 8.628906 8.628906 22.617188 0 31.246094l-188.898437 188.898437c-8.628907 8.628907-22.617188 8.628907-31.246094 0zm0 0" fill="#66b894"/><path d="m92.917969 126.222656-69.148438 69.144532c-8.628906 8.628906-8.628906 22.617187 0 31.246093l107.183594 107.1875c8.628906 8.628907 22.621094 8.628907 31.25 0l60.007813-60.011719c-83.679688-14.707031-116.757813-92.320312-129.292969-147.566406zm0 0" fill="#5ca886"/><path d="m203.695312 54.550781-131.847656 131.84375c6.089844 15.800781 6.089844 33.394531 0 49.195313l50.132813 50.132812c15.796875-6.089844 33.394531-6.089844 49.191406 0l131.847656-131.847656c-6.089843-15.796875-6.089843-33.394531 0-49.191406l-50.132812-50.132813c-15.796875 6.089844-33.394531 6.089844-49.191407 0zm0 0" fill="#83d4ad"/><path d="m171.171875 285.722656 20.746094-20.746094c-49.296875-20.636718-76.078125-66.246093-90.402344-108.25l-29.667969 29.667969c6.089844 15.800781 6.089844 33.394531 0 49.195313l50.132813 50.132812c15.796875-6.089844 33.394531-6.089844 49.191406 0zm0 0" fill="#72c29b"/><g fill="#fff"><path d="m195.253906 207.015625c-1.917968 0-3.835937-.734375-5.300781-2.199219-2.929687-2.925781-2.929687-7.675781 0-10.605468l12.679687-12.683594c.957032-.953125 1.480469-2.222656 1.480469-3.570313 0-1.351562-.523437-2.617187-1.480469-3.574219-1.601562-1.601562-4.101562-1.9375-6.070312-.816406l-10.835938 6.171875c-7.820312 4.453125-17.734374 3.121094-24.101562-3.246093-7.816406-7.820313-7.816406-20.539063 0-28.359376l12.683594-12.679687c2.929687-2.929687 7.679687-2.929687 10.605468 0 2.929688 2.929687 2.929688 7.675781 0 10.605469l-12.679687 12.683594c-1.972656 1.96875-1.972656 5.171874 0 7.144531 1.605469 1.601562 4.101563 1.9375 6.070313.816406l10.835937-6.171875c7.824219-4.453125 17.734375-3.121094 24.101563 3.246094 3.789062 3.789062 5.875 8.824218 5.875 14.179687s-2.085938 10.394531-5.875 14.179688l-12.683594 12.683593c-1.464844 1.460938-3.382813 2.195313-5.304688 2.195313zm0 0"/><path d="m168.832031 159.035156c-1.917969 0-3.835937-.730468-5.300781-2.195312l-7.210938-7.210938c-2.929687-2.929687-2.929687-7.679687 0-10.605468 2.929688-2.929688 7.679688-2.929688 10.605469 0l7.210938 7.207031c2.929687 2.929687 2.929687 7.679687 0 10.609375-1.464844 1.460937-3.382813 2.195312-5.304688 2.195312zm0 0"/><path d="m213.246094 203.445312c-1.917969 0-3.839844-.730468-5.304688-2.195312l-7.207031-7.210938c-2.929687-2.929687-2.929687-7.675781 0-10.605468 2.925781-2.929688 7.675781-2.929688 10.605469 0l7.210937 7.210937c2.925781 2.925781 2.925781 7.675781 0 10.605469-1.46875 1.464844-3.386719 2.195312-5.304687 2.195312zm0 0"/><path d="m126.476562 238.59375c-1.921874 0-3.839843-.734375-5.304687-2.199219-2.929687-2.925781-2.929687-7.675781 0-10.605469l17.5625-17.558593c2.929687-2.929688 7.675781-2.929688 10.605469 0 2.929687 2.925781 2.929687 7.675781 0 10.605469l-17.5625 17.558593c-1.460938 1.464844-3.382813 2.199219-5.300782 2.199219zm0 0"/><path d="m230.832031 134.238281c-1.917969 0-3.839843-.730469-5.304687-2.199219-2.929688-2.925781-2.929688-7.675781 0-10.605468l17.5625-17.558594c2.925781-2.929688 7.675781-2.929688 10.605468 0 2.929688 2.929688 2.929688 7.679688 0 10.605469l-17.5625 17.558593c-1.464843 1.464844-3.382812 2.199219-5.300781 2.199219zm0 0"/></g><path d="m29.597656 224.382812h293.445313c38.613281 0 69.917969 31.304688 69.917969 69.921876v147.773437c0 38.617187-31.304688 69.921875-69.917969 69.921875h-289.457031c-18.546876 0-33.585938-15.035156-33.585938-33.585938v-224.4375c0-16.34375 13.25-29.59375 29.597656-29.59375zm0 0" fill="#caa58b"/><path d="m93.375 224.382812h-63.777344c-16.34375 0-29.597656 13.25-29.597656 29.59375v224.433594c0 18.550782 15.039062 33.589844 33.589844 33.589844h173.191406c-131.28125-63.738281-125.886719-217.890625-113.40625-287.617188zm0 0" fill="#bd977a"/><path d="m317.554688 486.316406h-276.546876c-8.453124 0-15.324218-6.871094-15.324218-15.324218v-201.292969c0-10.828125 8.808594-19.632813 19.632812-19.632813h272.238282c27.417968 0 49.722656 22.304688 49.722656 49.722656v136.804688c.003906 27.417969-22.304688 49.722656-49.722656 49.722656zm-272.238282-221.253906c-2.554687 0-4.632812 2.082031-4.632812 4.632812v201.296876c0 .179687.144531.324218.324218.324218h276.546876c19.148437 0 34.726562-15.578125 34.726562-34.722656v-136.804688c0-19.148437-15.578125-34.722656-34.726562-34.722656h-272.238282zm0 0" fill="#ad8b73"/><path d="m145.402344 356.863281c0-13.570312-13.816406-24.574219-30.859375-24.574219-17.039063 0-30.855469 11.003907-30.855469 24.574219 0 13.570313 13.816406 24.574219 30.855469 24.574219 17.042969 0 30.859375-11.003906 30.859375-24.574219zm0 0" fill="#fff"/><path d="m312.664062 356.863281c0-13.570312-13.816406-24.574219-30.859374-24.574219-17.042969 0-30.855469 11.003907-30.855469 24.574219 0 13.570313 13.8125 24.574219 30.855469 24.574219 17.042968 0 30.859374-11.003906 30.859374-24.574219zm0 0" fill="#fff"/><path d="m119.703125 335.347656c-4.144531 0-7.5-3.359375-7.5-7.5v-13.246094c0-4.140624 3.355469-7.5 7.5-7.5 4.140625 0 7.5 3.359376 7.5 7.5v13.246094c0 4.140625-3.359375 7.5-7.5 7.5zm0 0" fill="#495059"/><path d="m198.175781 360.339844c-12.347656 0-22.359375-10.011719-22.359375-22.359375v-16.253907c0-3.371093 2.734375-6.101562 6.105469-6.101562h32.507813c3.371093 0 6.101562 2.730469 6.101562 6.101562v16.253907c0 12.347656-10.007812 22.359375-22.355469 22.359375zm0 0" fill="#495059"/><path d="m276.648438 335.347656c-4.144532 0-7.5-3.359375-7.5-7.5v-13.246094c0-4.140624 3.355468-7.5 7.5-7.5 4.140624 0 7.5 3.359376 7.5 7.5v13.246094c0 4.140625-3.359376 7.5-7.5 7.5zm0 0" fill="#495059"/><path d="m316.003906 418.882812h-65.441406c-4.410156 0-7.988281 3.574219-7.988281 7.988282v11.449218c0 4.414063 3.578125 7.988282 7.988281 7.988282h65.441406c4.410156 0 7.988282-3.574219 7.988282-7.988282v-11.449218c0-4.414063-3.578126-7.988282-7.988282-7.988282zm0 0" fill="#dfe3e5"/></svg>