<svg id="Capa_1" enable-background="new 0 0 497 497" height="512" viewBox="0 0 497 497" width="512" xmlns="http://www.w3.org/2000/svg"><g><circle cx="388.253" cy="74.72" fill="#5c586f" r="34.419"/><path d="m297.304 132.276c17.635-32.075 51.751-53.803 90.949-53.803s73.314 21.728 90.949 53.803l-90.949 43.42z" fill="#77718a"/><path d="m349.872 247.444-68.872-36.249c-13.44-7.075-30.069-1.913-37.143 11.526-7.074 13.44-1.913 30.07 11.527 37.144l94.488 49.731z" fill="#ffb188"/><circle cx="108.747" cy="74.72" fill="#5c586f" r="34.419"/><path d="m199.696 132.276c-17.635-32.075-51.751-53.803-90.949-53.803-39.197 0-73.314 21.728-90.949 53.803l90.949 43.42z" fill="#77718a"/><path d="m147.128 247.444 68.872-36.249c13.44-7.075 30.069-1.913 37.143 11.526 7.074 13.44 1.913 30.07-11.527 37.144l-94.488 49.731z" fill="#ffcabd"/><path d="m322.584 242.093h131.337v123.597h-131.337z" fill="#fdbfde"/><path d="m43.079 242.093h131.337v123.597h-131.337z" fill="#fdbfde" transform="matrix(-1 0 0 -1 217.494 607.783)"/><path d="m387.407 78.488c-38.84.311-72.595 21.945-90.102 53.788l25.302 12.08c14.383-28.004 37.067-51.038 64.8-65.868z" fill="#6a647f"/><path d="m363.95 281.808c0-13.771 1.922-27.094 5.511-39.715h-46.876v123.597h68.102c-16.837-23.672-26.737-52.621-26.737-83.882z" fill="#fda8ca"/><path d="m492 182.22c0 57.301-46.446 103.747-103.747 103.747s-103.747-46.446-103.747-103.747c0-18.114 4.641-35.133 12.799-49.944 32.368-9.604 57.574-2.863 73.157 4.611 11.265 5.393 24.317 5.393 35.582 0 15.583-7.474 40.79-14.215 73.157-4.611 8.158 14.811 12.799 31.83 12.799 49.944z" fill="#fed2a4"/><g><g><path d="m329.667 200.042c-4.142 0-7.5-3.358-7.5-7.5v-11.258c0-4.142 3.358-7.5 7.5-7.5s7.5 3.358 7.5 7.5v11.258c0 4.142-3.358 7.5-7.5 7.5z" fill="#423e4f"/></g><g><path d="m446.839 200.042c-4.142 0-7.5-3.358-7.5-7.5v-11.258c0-4.142 3.358-7.5 7.5-7.5s7.5 3.358 7.5 7.5v11.258c0 4.142-3.358 7.5-7.5 7.5z" fill="#423e4f"/></g><g><path d="m388.253 206.743c-8.087 0-15.778-3.502-21.1-9.609-2.721-3.123-2.396-7.86.727-10.582 3.122-2.721 7.86-2.396 10.582.727 2.472 2.837 6.041 4.464 9.791 4.464s7.319-1.627 9.792-4.464c2.721-3.123 7.459-3.448 10.582-.727s3.448 7.459.727 10.582c-5.323 6.107-13.014 9.609-21.101 9.609z" fill="#423e4f"/></g></g><path d="m107.901 78.488c-38.84.311-72.595 21.945-90.102 53.788l25.302 12.08c14.383-28.004 37.068-51.038 64.8-65.868z" fill="#6a647f"/><path d="m84.444 281.808c0-13.771 1.922-27.094 5.511-39.715h-46.876v123.597h68.102c-16.837-23.672-26.737-52.621-26.737-83.882z" fill="#fda8ca"/><path d="m5 182.22c0 57.301 46.446 103.747 103.747 103.747s103.747-46.446 103.747-103.747c0-18.114-4.641-35.133-12.799-49.944-32.368-9.604-57.574-2.863-73.157 4.611-11.265 5.393-24.317 5.393-35.582 0-15.583-7.474-40.79-14.215-73.157-4.611-8.158 14.811-12.799 31.83-12.799 49.944z" fill="#ffdcce"/><g><g><path d="m167.333 200.042c-4.142 0-7.5-3.358-7.5-7.5v-11.258c0-4.142 3.358-7.5 7.5-7.5s7.5 3.358 7.5 7.5v11.258c0 4.142-3.358 7.5-7.5 7.5z" fill="#423e4f"/></g><g><path d="m50.162 200.042c-4.142 0-7.5-3.358-7.5-7.5v-11.258c0-4.142 3.358-7.5 7.5-7.5s7.5 3.358 7.5 7.5v11.258c0 4.142-3.358 7.5-7.5 7.5z" fill="#423e4f"/></g><g><path d="m108.747 206.743c-8.087 0-15.778-3.502-21.1-9.609-2.721-3.123-2.396-7.86.727-10.582 3.123-2.721 7.86-2.396 10.582.727 2.472 2.837 6.041 4.464 9.792 4.464 3.75 0 7.319-1.627 9.792-4.464 2.722-3.123 7.458-3.448 10.582-.726 3.123 2.722 3.448 7.459.726 10.582-5.323 6.106-13.014 9.608-21.101 9.608z" fill="#423e4f"/></g></g><g><path d="m50.061 303.503 52.853-27.817c13.44-7.073 18.602-23.703 11.527-37.144-7.074-13.439-23.704-18.601-37.144-11.526l-52.853 27.817c-13.439 7.073-18.601 23.703-11.526 37.143 7.063 13.42 23.687 18.612 37.143 11.527z" fill="#ffcabd"/></g><path d="m497 342.242c-22.556-10.256-48.444-10.256-71 0-22.556 10.256-48.444 10.256-71 0-22.556-10.256-48.444-10.256-71 0-22.556 10.256-48.444 10.256-71 0-22.556-10.256-48.444-10.256-71 0-22.556 10.256-48.444 10.256-71 0-22.556-10.256-48.444-10.256-71 0v114.457h497z" fill="#7de4fd"/><g><path d="m446.939 303.503-52.853-27.817c-13.44-7.073-18.602-23.703-11.527-37.144 7.074-13.439 23.704-18.601 37.144-11.526l52.853 27.817c13.439 7.073 18.601 23.703 11.526 37.143-7.063 13.42-23.687 18.612-37.143 11.527z" fill="#ffbd86"/></g><path d="m26.106 214.888c0-32.388 9.967-62.444 26.992-87.283-10.512-.396-22.329.823-35.299 4.671-8.158 14.811-12.799 31.83-12.799 49.944 0 25.842 9.45 49.474 25.078 67.636-2.598-11.237-3.972-22.942-3.972-34.968z" fill="#ffcabd"/><path d="m305.612 214.888c0-32.388 9.967-62.444 26.992-87.283-10.512-.396-22.329.823-35.299 4.671-8.158 14.812-12.799 31.831-12.799 49.944 0 25.842 9.45 49.474 25.078 67.636-2.598-11.237-3.972-22.942-3.972-34.968z" fill="#ffbd86"/></g></svg>